<?xml version="1.0" encoding="UTF-8" standalone="no"?>
<svg
   id="Mund_Kopie"
   data-name="Mund Kopie"
   width="4679"
   height="4679"
   viewBox="0 0 4679 4678.9999"
   version="1.1"
   sodipodi:docname="marek-studzinski-kT0nH5-zh5E-unsplash.svg"
   inkscape:version="1.2.2 (b0a8486541, 2022-12-01)"
   xmlns:inkscape="http://www.inkscape.org/namespaces/inkscape"
   xmlns:sodipodi="http://sodipodi.sourceforge.net/DTD/sodipodi-0.dtd"
   xmlns="http://www.w3.org/2000/svg"
   xmlns:svg="http://www.w3.org/2000/svg">
  <sodipodi:namedview
     id="namedview2445"
     pagecolor="#ffffff"
     bordercolor="#000000"
     borderopacity="0.25"
     inkscape:showpageshadow="2"
     inkscape:pageopacity="0.0"
     inkscape:pagecheckerboard="0"
     inkscape:deskcolor="#d1d1d1"
     showgrid="false"
     inkscape:zoom="0.12677294"
     inkscape:cx="169.59455"
     inkscape:cy="1782.7148"
     inkscape:window-width="1920"
     inkscape:window-height="1007"
     inkscape:window-x="0"
     inkscape:window-y="0"
     inkscape:window-maximized="1"
     inkscape:current-layer="Mund_Kopie" />
  <defs
     id="defs2430">
    <style
       id="style2428">
      .cls-1 {
        fill: #a70516;
      }

      .cls-1, .cls-2, .cls-3, .cls-4, .cls-5, .cls-6 {
        fill-rule: evenodd;
      }

      .cls-3 {
        fill: #c9081a;
      }

      .cls-4 {
        fill: #ecedeb;
      }

      .cls-5 {
        fill: #810410;
      }

      .cls-6 {
        fill: #e5b6bb;
      }
    </style>
  </defs>
  <g
     id="g2459"
     transform="translate(0,814.81121)">
    <path
       id="Form_6"
       data-name="Form 6"
       class="cls-1"
       d="m 0,875.721 c 0,0 482.68,2189 2342,2173.56 1924.43,-15.98 2328,-2173.56 2328,-2173.56 0,0 -487.47,-491.656 -1133,-767.44 -512.63,-219 -1015.78,-38 -1195,-38 -148.61,0 -590.26,-174.923 -1186,38 C 475.66,351.443 0,875.721 0,875.721 Z" />
    <path
       id="Form_10"
       data-name="Form 10"
       class="cls-2"
       d="m 0,875.721 c 0,0 1168.08,-242.44 2342,-242.44 1165.55,0 2337,242.44 2337,242.44 0,0 -1167.18,1862.56 -2337,1862.56 C 1172.32,2738.281 0,875.721 0,875.721 Z" />
    <path
       id="Form_12"
       data-name="Form 12"
       class="cls-3"
       d="m 925,1286.281 c 0,0 24.75,258.44 160,464 113.92,173.14 342,299 342,299 0,0 1751.13,47.14 1777,47 11.84,-0.07 312.55,-188.8 436,-398 146.32,-247.96 118,-523 118,-523 l -2902,-25 z" />
    <path
       id="Form_13"
       data-name="Form 13"
       class="cls-4"
       d="m 407,799.281 c 0,0 109.68,324.31 170,450 28.4,59.17 111.17,-0.33 107,-42 -4.2,-41.96 -23,-115 -23,-115 0,0 37.05,148.59 89,206 54.06,59.74 100,-17 100,-17 l 3,-51 c 0,0 20.3,50.58 39,87 49.01,95.44 157,-56 157,-56 l -7,-43 c 0,0 48.98,57.19 112,56 93.08,-1.76 140,-71 140,-71 0,0 74.91,62.81 188,62 80.71,-0.58 171.38,-32.46 225,-62 19.77,-10.89 22,-111 22,-111 0,0 6.97,74.43 27,122 15.34,36.43 45,49 45,49 0,0 163.13,55.82 275,49 152.36,-9.29 266.16,-82 266.16,-82 v -383 c 0,0 -8.69,-46.58 -31.16,-91 -27.16,-53.69 -111,-163 -111,-163 l -369,-21 c 0,0 -50.02,107.49 -80,209 -26.85,90.9 -34,177 -34,177 0,0 -1.64,-65.5 -22,-135 -22.98,-78.46 -127,-264 -127,-264 l -281,22 -14,254 -48,-251 -305,71 16,175 -31,-102 -187,23 21,96 c 0,0 6.59,-33.19 -22,-58 -10.78,-9.36 -26.39,-1.23 -43,-7 -20.36,-7.07 -41,-27 -41,-27 z" />
    <path
       id="Form_13_Kopie"
       data-name="Form 13 Kopie"
       class="cls-4"
       d="m 4279.16,799.281 c 0,0 -109.68,324.31 -170,450 -28.4,59.17 -111.17,-0.33 -107,-42 4.19,-41.96 23,-115 23,-115 0,0 -37.06,148.59 -89,206 -54.06,59.74 -100,-17 -100,-17 l -3,-51 c 0,0 -20.3,50.58 -39,87 -49.02,95.44 -157,-56 -157,-56 l 7,-43 c 0,0 -48.98,57.19 -112,56 -93.08,-1.76 -140,-71 -140,-71 0,0 -74.91,62.81 -188,62 -80.71,-0.58 -171.38,-32.46 -225,-62 -19.78,-10.89 -22,-111 -22,-111 0,0 -6.97,74.43 -27,122 -15.34,36.43 -45,49 -45,49 0,0 -163.14,55.82 -275,49 -152.36,-9.29 -266.16,-82 -266.16,-82 v -383 c 0,0 8.69,-46.58 31.16,-91 27.16,-53.69 111,-163 111,-163 l 369,-21 c 0,0 50.02,107.49 80,209 26.84,90.9 34,177 34,177 0,0 1.64,-65.5 22,-135 22.98,-78.46 127,-264 127,-264 l 281,22 14,254 48,-251 305,71 -16,175 31,-102 187,23 -21,96 c 0,0 -6.59,-33.19 22,-58 10.78,-9.36 26.39,-1.23 43,-7 20.36,-7.07 41,-27 41,-27 z" />
    <path
       id="Form_14"
       data-name="Form 14"
       class="cls-4"
       d="m 2335,2263.281 v -201 c 0,0 -43.4,-58.08 -164,-65 -162.37,-9.32 -336,25 -336,25 0,0 -5.88,24.42 -7,59 -2.07,63.86 0,157 0,157 l -15,-2 c 0,0 7.48,-59.15 8,-116 0.83,-91.67 43.73,-117.53 -182,-133 -171.07,-11.73 -155.82,36.42 -159,65 -3.77,33.93 -3,82 -3,82 l -15,-4 c 0,0 7.13,-38.62 9,-73 3.96,-72.88 17.87,-69.08 -141,-125 -49.44,-17.4 -86.34,-20.88 -106,-15 -18.89,5.65 -19.91,19.39 -22,31 -2.18,12.12 -8,35 -8,35 l -11,-14 c 0,0 12.53,-34.82 17,-50 9.44,-32.05 -197,-84 -197,-84 0,0 -13.05,4.37 -19,20 -12.72,33.43 -24,93 -24,93 l 773,332 z" />
    <path
       id="Form_14_Kopie"
       data-name="Form 14 Kopie"
       class="cls-4"
       d="m 2349,2263.281 v -201 c 0,0 43.4,-58.08 164,-65 162.37,-9.32 336,25 336,25 0,0 5.88,24.42 7,59 2.07,63.86 0,157 0,157 l 15,-2 c 0,0 -7.48,-59.15 -8,-116 -0.83,-91.67 -43.73,-117.53 182,-133 171.07,-11.73 155.82,36.42 159,65 3.77,33.93 3,82 3,82 l 15,-4 c 0,0 -7.13,-38.62 -9,-73 -3.96,-72.88 -17.87,-69.08 141,-125 49.44,-17.4 86.34,-20.88 106,-15 18.89,5.65 19.91,19.39 22,31 2.18,12.12 8,35 8,35 l 11,-14 c 0,0 -12.53,-34.82 -17,-50 -9.44,-32.05 197,-84 197,-84 0,0 13.05,4.37 19,20 12.72,33.43 24,93 24,93 l -773,332 z" />
    <path
       id="Form_11"
       data-name="Form 11"
       class="cls-1"
       d="m 0,875.721 c 0,0 1172.74,2049.56 2342,2049.56 1167.74,0 2328,-2050 2328,-2050 0,0 -593.03,858.72 -1439,1239 -257.56,115.78 -594.5,129.03 -889,134 -409.96,6.92 -879.15,-76.12 -1238,-294 C 434.58,1547.831 0,875.721 0,875.721 Z" />
    <path
       id="Form_7"
       data-name="Form 7"
       class="cls-5"
       d="m 0,875.721 c 0,0 1171.32,-447.44 2342,-447.44 1166.32,0 2332,447.44 2332,447.44 0,0 -1164.26,-230.44 -2332,-230.44 -1169.26,0 -2342,230.44 -2342,230.44 z" />
    <path
       id="Form_5"
       data-name="Form 5"
       class="cls-6"
       d="m 913,495.281 c 0,0 711.47,-160.752 1429,-160 713.46,0.748 1433,163 1433,163 0,0 -246.22,-328.433 -596,-419 -366.26,-94.835 -836.84,48 -836.84,48 0,0 -503.45,-129.078 -857.16,-38 -360.8,92.9 -572,406 -572,406 z" />
    <path
       id="Form_8"
       data-name="Form 8"
       class="cls-6"
       d="m 997,2160.281 c 0,0 670.32,473 1345,473 671.81,0 1348,-473 1348,-473 0,0 -677.62,272 -1348,272 -676.09,0 -1345,-272 -1345,-272 z" />
    <path
       id="Form_9"
       data-name="Form 9"
       class="cls-5"
       d="m 248,1337.281 c 0,0 411.66,926.75 1243,1321 241.14,114.36 548.49,149.59 851,149 305.27,-0.6 619.69,-29.69 864,-146 829.67,-395 1246,-1324 1246,-1324 0,0 -510.48,1652.08 -2110,1637 -1683.69,-15.87 -2094,-1637 -2094,-1637 z" />
  </g>
</svg>
