<?xml version="1.0" encoding="UTF-8" standalone="no"?>
<svg
   id="Layer_2"
   version="1.1"
   viewBox="0 0 3780 3780"
   sodipodi:docname="prayag-aghara-z7vHb4bJjKk-unsplash.svg"
   width="3780"
   height="3780"
   inkscape:version="1.2.2 (b0a8486541, 2022-12-01)"
   xmlns:inkscape="http://www.inkscape.org/namespaces/inkscape"
   xmlns:sodipodi="http://sodipodi.sourceforge.net/DTD/sodipodi-0.dtd"
   xmlns="http://www.w3.org/2000/svg"
   xmlns:svg="http://www.w3.org/2000/svg">
  <sodipodi:namedview
     id="namedview269"
     pagecolor="#ffffff"
     bordercolor="#000000"
     borderopacity="0.25"
     inkscape:showpageshadow="2"
     inkscape:pageopacity="0.0"
     inkscape:pagecheckerboard="0"
     inkscape:deskcolor="#d1d1d1"
     showgrid="false"
     inkscape:zoom="0.18153397"
     inkscape:cx="1423.9759"
     inkscape:cy="1718.6866"
     inkscape:window-width="1920"
     inkscape:window-height="1007"
     inkscape:window-x="0"
     inkscape:window-y="0"
     inkscape:window-maximized="1"
     inkscape:current-layer="Layer_2" />
  <defs
     id="defs218">
    <style
       id="style216">
            .st1,.st2{fill:#231f20}.st2{stroke:#231f20;stroke-miterlimit:10}.st4{fill:#f19c94}
        </style>
  </defs>
  <ellipse
     class="st4"
     cx="1729.8"
     cy="1122.5"
     rx="44.299999"
     ry="32.299999"
     id="ellipse220" />
  <ellipse
     class="st4"
     cx="2132.8999"
     cy="1167.9"
     rx="44.299999"
     ry="32.299999"
     id="ellipse222" />
  <path
     style="fill:#3659a8"
     d="m 1171.5,3361.1 -465.2,-13.9 -197.8,-31.7 -141.4,-43.1 -107.4,-73 -72.5,-114.4 -29.6,-147.7 14.6,-178.5 42.1,-191.5 90,-259.7 98.2,-220.2 131.9,-191.6 130.2,-121.4 130.3,-83.3 176.3,-76.1 182,-57.5 167.9,-32.9 38.5,-4.9 39.2,79.8 49.6,57.3 46.7,34.7 69.1,32.6 89.6,20.7 97.8,-9.9 62.4,-37.5 37.7,-43.8 34.3,-71.9 54.9,22.4 155.1,54.9 75.2,38.4 97.6,63.7 57.7,46.6 65.1,62.6 83.3,107.3 89.1,152.1 59.1,136.8 34.1,106.4 h -274.7 l -263.1,-2.3 -196.7,2.3 -36.7,18 -32,49.5 -155.9,492.8 -102.5,5.4 -102.4,34.9 -72.2,55.9 -34.4,92.3 -4.6,87.7 8.8,57.5 h -150.4 l -31.2,13.9 -23.8,40.8 z"
     id="path224" />
  <path
     d="m 1637.5,3422.8 272.4,-946.3 c 1.3,-6 5.5,-20.7 18.6,-33.8 13.4,-13.3 28.3,-17.3 34.3,-18.6 h 1408.3 l -24.3,106.6 -271.8,892.2 H 1637.5 Z"
     style="fill:#1db99d"
     id="path226" />
  <path
     style="fill:#ffffff"
     d="m 2322.5,2858 64.6,84.7 -55,127.5 131.9,-61.2 74.2,61.2 14.8,-120.5 126.6,-84.7 -127.5,-27.1 -3.4,-114.3 -100.4,111.7 z"
     id="path228" />
  <path
     class="st1"
     d="m 1247.1,830 c 1,1.3 -0.5,-0.7 -0.8,-1 -0.6,-0.8 -1.2,-1.5 -1.7,-2.3 -1.5,-2 -2.9,-4.1 -4.3,-6.1 -3.3,-4.8 -6.3,-9.8 -9.2,-14.9 -7.3,-13 -13.2,-26.6 -17.5,-40.8 -10.6,-35 -11.4,-72.4 -2.3,-107.8 9.1,-35.4 15.2,-42.3 27.1,-61.7 18.7,-30.4 40.3,-58.5 65.3,-83.9 27.2,-27.5 57.8,-51.5 91.1,-71.3 6.5,-3.8 13,-7.5 19.7,-11 6.7,-3.5 5.2,-4.2 6.3,-7.9 1.1,-3.7 2.8,-8.6 4.5,-12.8 1.7,-4.2 1.1,-2.8 1.7,-4.3 0.6,-1.5 0.6,-1.5 0.9,-2.3 0.3,-0.8 0.3,-0.8 0.5,-1.2 0.3,-0.8 -0.4,1 0.1,-0.3 1.6,-3.8 3.3,-7.5 5.1,-11.2 4.2,-8.8 8.8,-17.3 13.8,-25.7 12.5,-20.9 27.6,-40.2 45.2,-57 48.7,-46.8 115.5,-70.9 182.9,-67 28.5,1.7 56.7,8.2 83.3,18.6 7.4,2.9 14.6,6.1 22,9.9 7.4,3.8 6,3.8 9.2,3.9 7.1,0.3 14.4,-0.8 21.6,-1 73.4,-1.5 147,15.5 212.1,49.5 3.6,1.9 6.8,4.3 11,3.6 4.2,-0.7 6,-1.4 9.1,-2 6.4,-1.3 12.9,-2.5 19.4,-3.4 15.9,-2.3 32,-3.1 48.1,-2.7 40,1.1 79.4,11.5 114.3,31.1 26.3,14.8 48.9,34.2 70.4,55.1 12.6,12.2 24.4,25.2 34.7,39.5 10.3,14.3 14.9,22.2 22.5,33.2 31.5,45.3 77.2,75.9 129.1,93.6 17.9,6.1 36.2,10.6 54.8,14.1 l -4.5,-11 c -19.4,28 -42.4,53.6 -68.2,75.7 -20.3,17.4 -41.2,34.2 -64.2,48 -23,13.8 -59.4,29.2 -92.1,33.4 -32.7,4.2 -71.3,0 -104.9,-11.8 -25.3,-9 -49,-22.1 -70.6,-38 -2.1,-1.5 -5.5,-1.3 -7.6,0 -56.5,33.4 -120.4,53.4 -186,57.1 -57.4,3.2 -114.9,-5.7 -169.3,-23.9 -54.4,-18.2 -37.8,-14 -56.1,-22.7 -18.3,-8.7 -9.5,-0.4 -11,4.5 -19.4,62 -56.6,117.3 -106.3,159.1 l 12.5,3.3 c -29.2,-69.9 -92.3,-123.3 -168.3,-133.4 -35.9,-4.8 -72.4,0.8 -105.3,16 -32.9,15.2 -49.9,30.4 -69.4,51.8 -11.4,12.5 -22.3,26.2 -30.4,41.1 -8.1,14.9 8.3,16.1 13,7.6 6.2,-11.3 13.8,-21.4 21.5,-30.6 16.7,-19.8 36.4,-37 59,-49.8 60.1,-34 134.1,-28.3 190.9,9.8 56.8,38.1 59.3,54.7 74.6,91.5 2.2,5.4 7.9,7.2 12.5,3.3 51.7,-43.4 90,-101.3 110.2,-165.7 l -11,4.5 c 40.2,19.2 82.9,33.5 126.7,41.5 66.8,12.3 136,10 201.3,-9.1 34.5,-10.1 67.7,-24.7 98.6,-42.9 h -7.6 c 48.8,36 109.4,57.4 170.4,53.1 35.7,-2.5 70.1,-13.4 101.4,-30.5 31.3,-17.1 47.8,-31.2 69.6,-49.5 21.8,-18.3 56.7,-53.6 79,-85.9 22.3,-32.3 0,-10.2 -4.5,-11 -41.1,-7.6 -81.4,-20.8 -116.5,-43.9 -25.7,-16.9 -46.5,-38.9 -63.5,-64.4 -10,-15 -19.9,-29.9 -31.5,-43.7 -11.6,-13.8 -26.6,-28.5 -41.1,-41.5 -34.2,-30.7 -74,-54.5 -118.8,-65.7 -45.5,-11.3 -93.4,-9.9 -138.9,0.8 l 5.8,0.8 c -60.4,-32.5 -127.8,-51.1 -196.4,-54.1 -16.7,-0.7 -33.4,-0.5 -50.1,0.7 l 3.8,1 c -62.7,-34.5 -140.4,-43.6 -208.9,-22.6 -68.9,21.1 -124.5,71 -158.2,134.2 -8.5,15.9 -16,32.7 -21.1,50.1 l 3.4,-4.5 c -70.4,36.9 -130.9,91.7 -174.5,158.2 -13.7,20.8 -25.8,42.2 -33.7,66 -12.2,37 -14.2,77.1 -5.6,115.1 8.6,38 21.5,60.9 41.2,86.3 19.7,25.4 8,2.6 10.6,0 2.6,-2.6 2.5,-7.4 0,-10.6 z"
     id="path230" />
  <path
     class="st1"
     d="m 1418.7,728.4 c 0.3,-29.6 3.5,-59.1 9.4,-88.1 9.9,-49 27.2,-96.4 51.8,-139.9 24.6,-43.5 66.3,-95.3 111.1,-132 44.8,-36.7 74,-51.8 115.3,-69.5 25.8,-11 52.7,-19.8 80,-26 1.9,-0.4 3.8,-0.9 5.7,-1.3 9.4,-2 5.4,-16.5 -4,-14.5 -25.9,5.6 -51.3,13.4 -75.9,23.2 -41.6,16.6 -80.9,38.4 -116.6,65.5 -46.5,35.3 -86.5,78.8 -117.5,128.3 -28.1,44.9 -48.7,94.6 -60.9,146.2 -12.2,51.6 -12.5,67 -13.3,101 -0.8,34 0,4.7 -0.1,7.1 0,9.7 14.9,9.7 15,0 z m 103.9,30.5 c 4.4,-28.5 11.4,-56.6 20.5,-83.9 15.8,-47.2 38.1,-92.1 66.4,-133 37.5,-54.2 85.9,-100.8 141.4,-136.4 50.4,-32.4 106.4,-55.4 164.8,-68.6 35.9,-8.1 72.7,-12.6 109.6,-12.8 h 7.4 c 9.7,0 9.7,-14.9 0,-15 -34.5,-0.3 -69,3.2 -102.9,9.6 -57.9,11 -114.1,31.6 -165.2,61 -59.3,34.1 -111.4,80 -153.1,134.3 -32.7,42.5 -58.4,90.1 -77,140.4 -11.3,30.6 -20,62.2 -25.4,94.3 -0.3,2 -0.7,4.1 -1,6.2 -0.6,4 1,8 5.2,9.2 4.2,1.2 8.6,-1.2 9.2,-5.2 z M 2134,690.4 c 21.6,-19 44.1,-38.4 62.3,-60.7 18.2,-22.3 9.4,-11 9.7,-17.9 0.3,-6.9 -14.6,-9.6 -15,0 0,1.1 0.3,-2 0.1,-0.8 -0.2,1.2 -0.7,1.5 -0.1,0.5 0.6,-1 -1,1.7 -1.3,2.3 -1.9,3 -2.4,3.5 -4.4,6 -5.3,6.4 -11.1,12.4 -16.9,18.2 -11.8,11.8 -24,23.2 -36.4,34.3 -12.4,11.1 -5.6,5.1 -8.5,7.6 -7.3,6.4 3.4,16.9 10.6,10.6 z m -898.7,141.1 c -26.2,42 -40.2,93.2 -38,142.7 2.1,47.5 19.3,95.6 48.3,133.4 19.2,25.1 43.9,45.7 72.7,59 35.8,16.5 75.4,21.6 114.3,16.2 32.3,-4.5 63.8,-16.4 90.1,-35.8 26.3,-19.4 43.7,-40.5 58.6,-66.3 34.1,-59.1 42.7,-130.1 32.7,-196.9 -10,-66.8 -3.2,-18.6 -5.3,-27.8 -2.1,-9.2 -16.6,-5.4 -14.5,4 14.7,63.4 12.1,132.6 -15.2,192.3 -27.3,59.7 -28.4,50.3 -49.6,69.8 -21.4,19.7 -47.2,33.4 -75.2,40.9 -34.6,9.3 -71.7,9.3 -106.1,-1.1 -30.7,-9.3 -58.3,-27 -80,-50.7 -21.7,-23.7 -46.7,-72 -53.5,-114 -8.4,-52 3.9,-107.1 30.1,-152.5 26.2,-45.4 2.3,-3.9 3.5,-5.8 5.1,-8.2 -7.9,-15.8 -13,-7.6 z"
     id="path232" />
  <path
     class="st2"
     d="m 1430.6,729 c 6.7,5.7 112,99.4 90.5,242.5 -21,139.7 -143.8,198.8 -152.9,203 l 98.8,-7.4 57,-30.5 44.4,-49.2 32.2,-73.7 9.9,-82.4 -22.9,-101 -46.5,-54.9 -43.3,-27.9 -44.4,-15.1 -22.8,-3.3 z"
     id="path234" />
  <ellipse
     class="st2"
     cx="1359.6"
     cy="951.69995"
     rx="74.199997"
     ry="110"
     id="ellipse236" />
  <path
     class="st1"
     d="m 1786.6,877.3 c 12.7,-11.7 31.4,-20.8 50,-22.3 18.6,-1.5 46.7,6.7 63.4,22.3 7.1,6.6 17.7,-4 10.6,-10.6 -19.8,-18.4 -46.9,-28.9 -74,-26.7 -27.1,2.2 -44.1,11.5 -60.6,26.7 -16.5,15.2 3.5,17.1 10.6,10.6 z m 307.3,31.4 c 20.5,-18.4 51,-25.4 76.6,-13.4 25.6,12 18.8,11.9 25.5,20.7 6.7,8.8 4.8,6.9 6.8,10.6 2,3.7 1.4,2.6 2,3.9 0.6,1.3 1.7,3.9 0.5,1 1.6,3.7 5,6.4 9.2,5.2 4.2,-1.2 6.8,-5.5 5.2,-9.2 -8.5,-20.3 -24.2,-37.7 -44.5,-46.5 -31.3,-13.6 -67,-5.5 -92,17 -7.2,6.5 3.4,17 10.6,10.6 z"
     id="path238" />
  <path
     class="st1"
     d="m 2261.3,737.5 c -3.4,52.7 -7.7,105.4 -12.7,158 -4.9,51 -9.6,102.2 -16.1,153.1 -5.6,43.8 -13.9,87.3 -22.9,130.5 -10.3,49.3 -22.9,98.7 -44.7,144.3 -21.8,45.6 -42.2,71.3 -71.3,101.3 -29.1,30 -55.1,49.6 -87.7,67.1 -44.2,23.7 -94,36 -144.2,34.4 -44.1,-1.5 -87.5,-13.7 -127.1,-32.9 -39.6,-19.2 -64.1,-36.9 -92.3,-60.8 -16.9,-14.3 -33,-29.7 -47.6,-46.4 -1.2,-1.4 -2.4,-2.8 -3.6,-4.3 -6.2,-7.4 -16.7,3.2 -10.6,10.6 11,13.3 23.3,25.5 36,37.2 26.2,24.1 54.9,45.7 85.8,63.5 30.9,17.8 79.8,38.1 123.4,44.7 43.6,6.6 103.2,2.3 151.3,-16.3 40.7,-15.7 77.5,-39.8 109.7,-69.1 32.2,-29.3 52,-53.6 71.5,-85.2 26.8,-43.4 43.9,-92 56.2,-141.4 12,-48.1 21.3,-97.3 28.8,-146.3 6.8,-44.4 11,-89.1 15.5,-133.8 5.9,-58.7 11.3,-117.4 15.5,-176.3 4.2,-58.9 1.5,-21.3 2.2,-31.9 0.6,-9.6 -14.4,-9.6 -15,0 z"
     id="path240" />
  <ellipse
     class="st2"
     cx="-574.23517"
     cy="2001.3937"
     rx="38.799999"
     ry="29.299999"
     transform="rotate(-77.7)"
     id="ellipse242" />
  <ellipse
     class="st2"
     cx="-548.672"
     cy="2298.7932"
     rx="38.799999"
     ry="29.299999"
     transform="rotate(-77.7)"
     id="ellipse244" />
  <path
     class="st1"
     d="m 2004.5,990.5 c 3.4,16.8 7,33.5 10.9,50.1 3.2,13.9 7.1,27.8 9.7,41.9 3.3,17.7 5.3,35.7 8.9,53.3 1.5,7.5 3.2,15.8 0.5,23.2 -2.7,7.4 -7.8,11.1 -13.8,13 -6,1.9 -9.6,0.1 -14,0 -4.4,-0.1 -10.5,-0.4 -15.7,-0.7 -11.1,-0.5 -22.3,-0.9 -33.4,-1.4 -11.1,-0.5 -9.6,14.6 0,15 9.6,0.4 21,0.9 31.4,1.3 10.4,0.4 21.1,1.9 31.4,1.3 10.3,-0.6 14.9,-5.9 19.7,-10.6 4.8,-4.7 10.1,-15.4 10.6,-24.7 0.5,-8.9 -1.8,-17.8 -3.5,-26.4 -1.9,-9.9 -3.3,-19.8 -4.8,-29.8 -2.5,-16.9 -6.4,-33.2 -10.3,-49.8 -3.9,-16.6 -9.1,-39.8 -13.2,-59.9 -4.1,-20.1 -16.4,-5.5 -14.5,4 z M 1836,1244.1 c 19.1,46.6 66.8,76.5 117.4,70.9 50.6,-5.6 19,-3 28,-6.3 9,-3.3 5.1,-17.9 -4,-14.5 -42.3,15.8 -91.3,1.5 -116.9,-36 -25.6,-37.5 -4.9,-7.6 -6.9,-11.6 -2,-4 -1.5,-3.1 -2.3,-4.6 -0.8,-1.5 -0.5,-1.2 -0.8,-1.7 -0.5,-1.2 0.6,1.5 0,-0.2 -1.5,-3.7 -5,-6.4 -9.2,-5.2 -4.2,1.2 -6.8,5.4 -5.2,9.2 z"
     id="path246" />
  <path
     class="st2"
     d="m 1515.3,1151.9 c 12.8,28 41.5,80.9 98.9,126.9 57.8,46.3 116,62.6 146.1,69 2.8,-4.6 7.7,-10.9 15.7,-14.8 9.5,-4.7 18.5,-3.5 35.5,-0.9 23.9,3.6 38.6,5.9 45.7,7 2,0.4 13.4,2.9 20.1,14 5.5,9 4.4,18.1 3.9,20.9 -1.4,8.2 -5.7,13.4 -8.3,16.4 -5.6,6.7 -12.1,10.1 -15.7,11.6 -7.8,1.1 -16.3,1.8 -25.5,1.9 -15.5,0.1 -36.4,-1.4 -58.3,-8 0,0 -17.5,0.9 -15.7,-20.1 -0.3,-4.6 -0.5,-9.1 -0.8,-13.7 -5.6,-1.2 -11.1,-2.5 -16.7,-3.7 -18.2,-4.3 -42.3,-11.5 -69,-24.2 -65.2,-30.8 -102.7,-73 -110,-81.5 -22.1,-25.5 -37.9,-52.9 -43.6,-62.9 -6.8,-11.9 -12.1,-22.3 -15.7,-30 -4.2,-4.9 -8.4,-9.7 -12.5,-14.5 8.6,2.2 17.3,4.5 25.9,6.7 z"
     id="path248" />
  <path
     class="st1"
     d="m 1886.1,1533.7 c 0.7,18.4 -2.9,36.6 -11,53.2 -8.1,16.6 -0.6,10 4.5,11 65.3,12.6 129.4,31.9 190.7,57.9 77.6,32.9 151,76.4 217.1,128.9 50.8,40.4 99.1,85.8 138.5,137.5 49,64.4 92.2,133.3 128.8,205.5 36.3,71.7 66,146.7 88.7,223.9 2.3,7.7 4.5,15.5 6.6,23.3 l 7.2,-9.5 c -113.9,-0.4 -227.9,-0.7 -341.8,-1.1 -113.9,-0.4 -227.9,-0.7 -341.8,-1.1 -19.5,0 -39.2,-1.9 -58.1,4 -18.9,5.9 -40.5,20.2 -53.5,38.7 -13,18.5 -12.5,24.1 -16.4,37.2 -6.2,21.1 -12.5,42.2 -18.7,63.4 -11.7,39.7 -23.5,79.4 -35.2,119.1 -15,50.7 -30,101.4 -45,152.2 -15,50.8 -32.1,108.6 -48.2,163 -14.8,49.9 -29.5,99.7 -44.3,149.6 -11.4,38.4 -22.7,76.8 -34.1,115.2 -5.6,19 -11.2,37.9 -16.8,56.9 -0.2,0.8 -0.5,1.7 -0.7,2.5 l 7.2,-5.5 h -335.6 c -12,0 -23.8,-0.5 -35.6,1.7 -10.6,2 -21.2,5.5 -30.3,11.2 -13.6,8.4 -21.9,20.9 -26.7,36 -4.8,15.1 -7.4,31.1 -7.5,47 l 7.5,-7.5 c -62,0.6 -124,0.1 -186,-1.5 -65.5,-1.7 -131,-4.6 -196.4,-8.8 -65.4,-4.2 -129.9,-9.6 -194.6,-16.2 -31,-3.2 -61.8,-6.7 -92.4,-12.7 -25.2,-4.9 -50.1,-11.1 -74.6,-18.6 -40,-12.2 -80,-27.2 -115.3,-50 -41.7,-26.9 -76.9,-62.2 -102.2,-105 -25.3,-42.8 -41.3,-89.4 -48.8,-137.5 -7.8,-49.8 -8.9,-101.4 -3.9,-151.5 2.7,-27.7 7.3,-55.2 12,-82.6 4.7,-27.4 11,-61.7 17.5,-92.3 6.5,-30.6 17.6,-76 28.3,-113.6 10.7,-37.6 25.1,-83.2 39.4,-124.1 18.6,-53 39.1,-105.4 61.3,-157 11.7,-27.3 24.9,-54 35.9,-81.6 7.3,-18.4 15,-36.5 23.3,-54.4 19.5,-42.1 41.8,-83 66.8,-122.1 28.9,-45.1 61.4,-87.9 97.5,-127.5 40.9,-44.9 86.3,-85.9 135.4,-121.8 49.1,-35.9 97.8,-64.2 150.5,-89.6 45.3,-21.8 92.1,-40.3 139.4,-57.5 54.7,-19.9 109.7,-38.4 166,-53.2 51.8,-13.6 104.2,-24.6 157.1,-32.9 52.9,-8.3 41.5,-6.1 62.3,-8.5 20.8,-2.4 6.6,-2.1 7.2,-5.5 2.1,-11.3 4.3,-22.7 6.4,-34 5.2,-27.2 10.3,-54.4 15.5,-81.6 5.2,-27.2 12.5,-65.9 18.7,-98.8 l 16.2,-85.5 c 2.6,-13.9 5.5,-27.8 7.9,-41.7 2.4,-13.9 0,-0.4 0.1,-0.6 1.8,-9.4 -12.7,-13.5 -14.5,-4 -2.1,11.3 -4.3,22.7 -6.4,34 -5.2,27.2 -10.3,54.4 -15.5,81.6 -6.2,32.9 -12.5,65.9 -18.7,98.8 -6.2,32.9 -10.8,57 -16.2,85.5 -5.4,28.5 -3.6,18.8 -5.4,28.2 -1.8,9.4 -2.3,9.1 -2.6,13.5 -0.3,4.4 0,0.4 -0.1,0.6 l 7.2,-5.5 c -47.4,5.5 -94.7,13 -141.4,22.7 -59.3,12.3 -117.8,27.9 -175.3,46.9 -48.7,16.1 -97.2,33.7 -144.7,53.2 -51,20.9 -100.9,44.6 -148.3,72.8 -54,32.1 -104.7,69.6 -151.1,111.9 -42.8,39 -81.7,82.1 -116.6,128.3 -30.5,40.3 -57.8,83.1 -81.8,127.6 -24,44.5 -38.2,76.5 -53.9,116.2 -11.1,28 -24.6,55.2 -36.5,82.9 -11.7,27.5 -23,55.2 -33.8,83 -18.1,46.7 -34.7,94 -49.7,141.8 -10.7,34.1 -20.6,68.4 -29.4,103 -13.9,55 -24.8,110.7 -34.3,166.7 -9.2,54.3 -15.9,108.7 -12.9,163.9 1.3,24.4 3.2,48.9 7.3,73.1 4.8,28.7 12.9,56.6 23.9,83.5 17.9,43.9 42.4,84.6 76.4,118.1 29.5,29.1 64.4,52.6 102.2,69.5 46.9,21 97,35.7 147.4,45.6 50.4,9.9 62.2,9.8 93.5,13.1 32.2,3.3 64.5,6.3 96.7,9.1 66.9,5.6 134,10 201.1,13 64.3,2.9 128.7,4.6 193.1,5 29.9,0.2 59.9,0.2 89.8,-0.1 4.1,0 7.5,-3.4 7.5,-7.5 0,-13.2 2.2,-26.1 5.7,-38.8 3.5,-12.7 8.7,-23.1 19.5,-30.3 10.8,-7.2 18,-8.8 27.9,-10.6 9.9,-1.8 4.7,-0.9 8.2,-1.2 7.9,-0.6 16,0 23.8,0 h 335.6 c 3.3,0 6.3,-2.3 7.2,-5.5 3.9,-13 7.7,-26.1 11.6,-39.1 l 30.3,-102.3 c 14,-47.3 28,-94.7 42,-142 15.9,-53.7 31.7,-107.3 47.6,-161 15.4,-52.1 30.8,-104.2 46.2,-156.2 15.4,-52 25.6,-86.4 38.3,-129.6 8,-26.9 15.9,-53.9 23.9,-80.8 1.5,-5 3,-9.9 4.4,-14.9 8.5,-29.7 29.8,-53.1 59.9,-61.9 7.4,-2.2 12.3,-3.1 18.5,-3 14,0 28,0 42,0.1 28,0 56,0.2 84,0.3 56.6,0.2 113.3,0.4 169.9,0.5 113.3,0.4 226.6,0.7 339.8,1.1 27.3,0 54.6,0.2 82,0.3 4.9,0 8.5,-4.8 7.2,-9.5 -20.7,-75.3 -48,-148.8 -81.4,-219.3 -36.2,-76.3 -79.6,-149.2 -129.5,-217.3 -10.5,-14.3 -21.3,-28.4 -32.3,-42.3 -8.9,-11.2 -19.1,-21.6 -29,-32 -23.3,-24.3 -47.8,-47.3 -73.6,-68.9 -64.9,-54.7 -137,-100.7 -214,-136.3 -64.4,-29.8 -132,-52.4 -201.4,-67.3 -69.4,-14.9 -13,-2.7 -19.5,-4 l 4.5,11 c 9.2,-19 13.8,-39.7 13,-60.8 -0.3,-9.6 -15.3,-9.7 -15,0 z"
     id="path250" />
  <path
     class="st1"
     d="m 409,2083.6 c -36.2,-48.3 -62.2,-104.5 -77.3,-162.8 -26,-100.1 -16.8,-208 26.9,-301.9 43.7,-93.9 72,-118.3 124.6,-162.6 52.6,-44.3 6.7,-5.6 10.2,-8.3 3.5,-2.7 1.4,-1.1 2,-1.6 1.5,-1.2 -1.3,1 0.6,-0.5 1.9,-1.5 3.1,-2.3 4.6,-3.5 7.1,-5.8 13.8,-11.9 21.2,-17.3 9.5,-6.8 19.4,-12.9 29.8,-18.3 19.8,-10.2 40.9,-16.6 62.6,-21.1 21.7,-4.5 35.8,-6.1 54,-5.6 18.2,0.5 39.7,4.6 54.8,17.2 15.1,12.6 24,38.2 23.5,60.8 -0.5,22.6 -0.4,8.8 -1,13.2 -0.6,4.4 -0.5,2.6 -0.6,4.2 -0.2,3 0.9,-1.1 -0.2,1.4 -2.3,4.9 -4.8,9.7 -7.7,14.3 -10.4,16.6 -25.1,30.3 -42.6,39.2 -17.5,8.9 -48.9,13.5 -73.4,7 -24.5,-6.5 -24.9,-9.6 -36.7,-16.5 -43.4,-25.4 -78.3,-65 -96.6,-112 -16.2,-41.6 -20.5,-88.2 -11.8,-132 7.8,-39.7 26.2,-77.8 51.8,-108.4 25.6,-30.6 6.1,-7.7 9.7,-10.9 7.5,-6.7 17,-12.1 25.8,-17 20,-11.1 43.5,-19.1 65.4,-21.2 21.9,-2.1 31.9,0 47.5,3 25,5 49.5,13 73.6,21.3 50.9,17.6 100.5,38.7 148.6,63 29.2,14.8 58.2,30 87.3,45 27.7,14.3 53.5,31.9 82.3,44.3 51.2,22.1 105.9,35.3 161.5,39.1 51.9,3.6 104.7,-11.6 146.6,-42.5 14.8,-10.9 28.2,-23.4 40,-37.5 11.8,-14.1 -4.4,-18 -10.6,-10.6 -31.7,38.2 -76,64.2 -124.9,72.9 -21,3.7 -41.9,3.5 -63.1,1.6 -28.4,-2.6 -56.5,-7.8 -84,-15.5 -29.7,-8.4 -60.1,-19.1 -86.9,-34.6 -14.6,-8.4 -29,-17.1 -43.7,-25.2 -14.6,-8.1 -29.7,-15.4 -44.5,-23 -54.6,-28.2 -109.2,-55.6 -166.6,-77.6 -57.4,-22 -48.4,-17.9 -73.1,-25.3 -21.1,-6.4 -42.8,-11.9 -64.8,-13.6 -43,-3.3 -86.2,12.5 -120.4,37.8 -11.1,8.2 -19.6,19.5 -27.7,30.7 -12.1,16.6 -22,34.7 -29.9,53.6 -17.9,43.1 -22.9,90.5 -15.8,136.5 8.7,56.2 37.6,108.4 81,145.4 27,23 59.3,42.9 95.2,47.1 47.9,5.6 93.8,-20.4 117.1,-61.9 2.3,-4 5.1,-8.7 6.2,-13.3 2.1,-8.8 2.4,-18.7 2.3,-27.7 -0.5,-24.5 -8.7,-49.6 -27.9,-65.8 -32.3,-27.3 -79.6,-24.1 -118.5,-16.5 -38.9,7.6 -42.8,10.2 -62.9,19.6 -20.8,9.7 -40.1,22.6 -57.4,37.6 -0.8,0.7 -1.6,1.4 -2.3,2 -0.7,0.6 -2,1.9 -1.6,1.5 0.4,-0.4 -0.9,0.7 -1.2,1 l -5.1,3.9 c -3.3,2.6 -6.5,5.2 -9.8,7.8 -9.4,7.8 -18.4,15.9 -27.1,24.4 -25.9,25.1 -49,53.2 -68.8,83.3 -26.1,39.6 -46.2,83.2 -59.3,128.7 -15.5,54.2 -21.1,111.5 -16,167.7 4.2,47.2 15.5,93.5 33.3,137.4 12.2,30.2 27.1,59.3 45.1,86.4 4.4,6.6 9,13.2 13.7,19.5 4.7,6.3 6.5,4.9 10.3,2.7 3.8,-2.2 5.1,-7 2.7,-10.3 z m 1465.4,-494.9 c -8.9,28.4 -23.1,55.8 -42.6,79.4 -35,42.4 -85.4,69 -140.7,70.9 -26.3,0.9 -52.3,-3.2 -77.8,-9.2 -25.5,-6 -51.7,-13.3 -76,-24.4 -33.5,-15.2 -65.1,-35.8 -91.6,-61.4 -26.5,-25.6 -58.7,-71.7 -74.8,-114.8 -16.1,-43.1 -2.8,-7.7 -4.1,-11.5 -3,-9.1 -17.5,-5.2 -14.5,4 16,48.2 42.8,92.6 78.5,128.8 24.3,24.6 53.3,45 84.1,60.8 25.5,13.1 52.2,22.5 80,29.5 27.8,7 51.7,12 78.2,13.1 59.4,2.6 116.8,-19.7 158.1,-62.6 25.2,-26.2 44,-58.5 55.8,-92.8 0.7,-1.9 1.3,-3.9 1.9,-5.8 2.9,-9.2 -11.6,-13.2 -14.5,-4 z"
     id="path252" />
  <path
     class="st1"
     d="m 1233.2,1540.1 c 15.8,53.7 41.5,104.7 75.5,149.2 37.9,49.5 86,91.1 140.5,121.3 30.5,16.9 63.1,30.4 96.7,39.5 38.3,10.4 77.4,14.3 117,14.1 31,-0.2 62,-2.5 92.2,-9.4 30.2,-6.9 76.2,-25.6 107.9,-50.2 56.9,-44 93.1,-110.2 105.2,-180.6 0.8,-4.6 1.5,-9.3 2.1,-13.9 0.6,-4.6 -3.8,-7.5 -7.5,-7.5 -3.7,0 -7,3.5 -7.5,7.5 0.3,-2.2 -0.1,1 -0.2,1.5 -0.1,1 -0.3,1.9 -0.4,2.9 l -1.2,7.2 c -1,5.6 -2.2,11.2 -3.5,16.8 -3.3,13.9 -7.5,27.6 -12.6,40.9 -13.7,35.6 -34.8,68.3 -62.2,94.9 -29,28.3 -64.7,48.8 -103.4,60.6 -30.5,9.3 -62.1,13.3 -93.8,14.2 -35.3,1 -70.5,-0.6 -105.2,-7.8 -34.5,-7.2 -67.9,-18.9 -99.4,-34.7 -51.6,-25.8 -98.1,-61.7 -135.9,-105.2 -38.8,-44.7 -68.4,-97.7 -86.5,-154 -18.1,-56.3 -2.3,-7.4 -3.4,-11.1 -2.7,-9.2 -17.2,-5.3 -14.5,4 z"
     id="path254" />
  <path
     class="st2"
     d="m 1585.7,1387 c -4.3,2.6 32.7,122.6 122.9,174.9 20.9,12.1 79.8,40.9 177.4,19.8 v -48 l -56,-2.9 -99.8,-31.4 -56.4,-33.3 -41.9,-32.7 -34,-32.6 c -4.2,-5.7 -11,-14.6 -12.3,-13.8 z"
     id="path256" />
  <path
     class="st1"
     d="m 1173.7,3355.3 v 73.3 c 0,4 3.4,7.5 7.5,7.5 h 13.2 c 12.5,0 25,0 37.5,-0.1 l 59.2,-0.2 c 26.2,0 52.4,-0.2 78.7,-0.2 31.6,0 63.2,-0.2 94.9,-0.3 l 108.7,-0.3 c 36.2,-0.1 80.2,-0.2 120.3,-0.4 43,-0.1 86,-0.3 128.9,-0.4 44.8,-0.1 89.6,-0.3 134.4,-0.4 45.9,-0.1 91.8,-0.3 137.7,-0.4 46.3,-0.1 92.5,-0.3 138.8,-0.4 45.4,-0.1 90.9,-0.3 136.3,-0.4 43.9,-0.1 87.8,-0.3 131.6,-0.4 41.6,-0.1 83.2,-0.3 124.8,-0.4 38.1,-0.1 76.3,-0.2 114.4,-0.4 l 101.9,-0.3 c 29,0 58,-0.2 87,-0.3 22.9,0 45.9,-0.1 68.8,-0.2 h 48.4 c 8.4,-0.2 16.9,-0.2 25.3,-0.2 h 3.1 c 3.4,0 6.3,-2.3 7.2,-5.5 30.3,-99.3 60.5,-198.7 90.8,-298 30.4,-99.7 60.7,-199.3 91.1,-299 30.3,-99.3 60.5,-198.7 90.8,-298 7.6,-24.8 15.1,-49.7 22.7,-74.5 4.8,-15.7 2.5,-33.1 -4.1,-48 -7.8,-17.6 -22.6,-30.8 -40.3,-38 -17.7,-7.2 -9.6,-3.7 -14.5,-3.9 -18,-0.7 -36.2,0 -54.2,0 h -607.4 c -9.7,0 -9.7,15 0,15 h 662.1 c 0.4,0 -2.6,-0.6 -0.8,0 1.8,0.6 4.1,1 6.1,1.7 15.9,5.3 29.3,17.2 35.9,32.7 3.4,8 4.9,16.7 4.6,25.4 -0.2,7.6 -2.4,12.7 -5.2,21.7 -30.1,98.7 -60.1,197.4 -90.2,296.1 -30.1,98.7 -60.1,197.4 -90.2,296.1 -29.9,98.1 -59.8,196.1 -89.6,294.2 -7.4,24.2 -14.7,48.4 -22.1,72.6 2.4,-1.8 4.8,-3.7 7.2,-5.5 h -50.7 c -19.7,0.2 -39.5,0.2 -59.2,0.3 -26.2,0 -52.4,0.2 -78.7,0.2 -31.6,0 -63.2,0.2 -94.9,0.3 l -108.7,0.3 c -40.1,0.1 -80.2,0.2 -120.3,0.4 -43,0.1 -86,0.3 -128.9,0.4 -44.8,0.1 -89.6,0.3 -134.4,0.4 -45.9,0.1 -91.8,0.3 -137.7,0.4 -46.3,0.1 -92.5,0.3 -138.8,0.4 -45.4,0.1 -90.9,0.3 -136.3,0.4 -43.9,0.1 -87.8,0.3 -131.6,0.4 -41.6,0.1 -83.2,0.3 -124.8,0.4 -38.1,0.1 -76.3,0.2 -114.4,0.4 l -101.9,0.3 c -34,0.1 -58,0.2 -87,0.3 -22.9,0 -45.9,0.1 -68.8,0.2 -16.1,0 -32.2,0 -48.4,0.1 h -28.4 l 7.5,7.5 v -73.3 c 0,-9.7 -15,-9.7 -15,0 z"
     id="path258" />
  <path
     class="st1"
     d="m 3147.5,2379.4 c 30.2,-17.4 58.4,-38.4 84.3,-61.7 44.4,-40.1 81.9,-88.2 108.3,-141.9 34.9,-70.8 50.3,-150.4 45,-229.2 -2.8,-40.9 -10.5,-82 -23.8,-120.8 -16.2,-47 -40.7,-91.1 -72.5,-129.3 -48.1,-57.9 -113.8,-100.7 -186.5,-120.7 -67.1,-18.4 -138.7,-17 -206,-0.2 -18.8,4.7 -37.3,10.5 -55.2,17.9 -17.9,7.4 -46.7,26.9 -65.3,45.5 -34.9,34.9 -53.7,80.4 -52.8,129.9 1.1,58.1 25.8,114.1 59.4,160.6 41.4,57.5 97.2,103.9 158.9,138.2 67.9,37.7 138.7,70.7 211.6,97.5 52,19.2 105.5,34.6 154.8,60.4 60.8,31.9 114.5,75.7 160.4,126.7 17.3,19.3 31.2,36.9 45.8,58.7 14.6,21.8 28.1,44.9 39.9,68.6 32.5,65.2 53.1,136.4 59.8,208.9 7,75.3 -0.7,151.5 -22.1,223.9 -6.7,22.5 -14.1,46.8 -24.9,66.8 -12.6,23.6 -26.5,46.6 -41.5,68.8 -42.9,63.4 -95.5,120.2 -155.2,168.1 -61.5,49.3 -131,89 -204.6,117.1 -24.3,9.3 -49.1,17.3 -74.3,24.1 -9.3,2.5 -5.4,17 4,14.5 60.3,-16.3 118.7,-39.9 173.4,-70 74.2,-40.9 141.8,-94 199,-156.6 42.3,-46.3 79.1,-97.8 109.2,-152.9 11.3,-20.7 19.1,-43.1 26.2,-65.6 9.7,-30.7 16.9,-62.2 21.6,-94 11.9,-80.6 7.7,-163.2 -12.9,-242 -15.9,-60.8 -41.4,-119.2 -74.9,-172.4 -33.5,-53.2 -72.7,-97 -118.9,-136.3 -45.8,-38.9 -97,-70.2 -152.7,-92.6 -24.7,-10 -50,-18.3 -75.1,-27 -32.5,-11.3 -64.8,-23.4 -96.5,-37 -38.6,-16.5 -76.5,-34.6 -113.6,-54.2 -30.1,-15.9 -59.6,-32.4 -87.1,-52.6 -53.5,-39.4 -100.5,-90.2 -129.3,-150.5 -22.1,-46.1 -33.4,-100.4 -18.6,-150.4 2.9,-9.9 5.5,-16.3 9.8,-24.6 4.3,-8.3 11.7,-20.2 19.1,-29.3 7.4,-9.1 22.2,-23.8 35.1,-33.6 12.9,-9.8 21.4,-15.8 33.3,-21 11.9,-5.2 1,-0.4 1.4,-0.6 1.9,-0.8 -1.2,0.5 0.5,-0.2 1.7,-0.7 2.9,-1.2 4.3,-1.8 3.5,-1.4 7.1,-2.8 10.6,-4 9.6,-3.5 19.4,-6.6 29.3,-9.4 27.8,-7.8 56.3,-12.9 85.1,-14.9 79.1,-5.5 157.9,13.3 224.5,56.7 51.7,33.6 93.4,80.8 122.7,134.8 16,29.6 27.6,60.2 36,92.8 16.6,64.2 19.5,132.1 6.9,197.2 -13.4,69 -43.6,134.1 -87.4,189 -29.9,37.5 -65.6,70.7 -104.8,97.7 -10.1,7 -20.5,13.6 -31.2,19.7 -10.7,6.1 -0.8,17.8 7.6,13 z m -72.4,1050.9 h 111.7 c 9.7,0 9.7,-15 0,-15 h -111.7 c -9.7,0 -9.7,15 0,15 z M 1602.4,3264.9 c -13.3,47 -26.5,93.9 -39.8,140.9 -1.9,6.6 -3.7,13.2 -5.6,19.8 -2.6,9.3 11.8,13.3 14.5,4 13.3,-47 26.5,-93.9 39.8,-140.9 1.9,-6.6 3.7,-13.2 5.6,-19.8 1.9,-6.6 -11.8,-13.3 -14.5,-4 z m -204.4,0 c -4.5,-17.8 -6.8,-34.7 -8.3,-52.4 -2.8,-34.2 -1.2,-68.9 7.1,-102.3 10.3,-40.7 31.2,-77.7 63.4,-105 31.2,-26.5 70.1,-42.6 109.4,-52.8 45.4,-11.7 91.7,-16 138.3,-10.8 46.6,5.2 7.5,-3.8 7.5,-7.5 0,-3.7 -3.5,-7 -7.5,-7.5 -44.7,-5 -89.2,-1.3 -132.9,9 -39.5,9.3 -78.6,24 -111.6,48 -36.7,26.7 -62.8,63.9 -76.7,107 -13.9,43.1 -14.8,73.3 -12.9,110.4 1.9,37.1 3.9,45.8 9.6,67.8 2.4,9.3 16.9,5.4 14.5,-4 z"
     id="path260" />
  <path
     class="st1"
     d="m 1521.2,2954.1 c -8.1,-1.9 -16.1,-3.9 -24.2,-5.8 -21.5,-5.1 -43,-10.3 -64.5,-15.4 -30.9,-7.4 -61.7,-14.7 -92.6,-22.1 -30.9,-7.4 -72.3,-17.2 -108.4,-25.9 -37.4,-8.9 -74.7,-17.8 -112.1,-26.7 -34.5,-8.2 -69,-16.5 -103.5,-24.7 -34.5,-8.2 -55.1,-13.1 -82.7,-19.7 -27.6,-6.6 -33.1,-7.9 -49.7,-11.8 -9.3,-2.2 -18.5,-3.6 -28,-5.1 -33,-5.2 -66,-10.4 -99.1,-15.6 -2.5,-0.4 -5,-0.8 -7.6,-1.2 -4,-0.6 -8,1 -9.2,5.2 -1.2,4.2 1.2,8.6 5.2,9.2 27.6,4.3 55.2,8.7 82.8,13 15.3,2.4 31,3.9 46.1,7.5 13.3,3.2 26.6,6.3 39.9,9.5 25.3,6 50.5,12.1 75.8,18.1 33.2,7.9 66.4,15.8 99.6,23.8 37,8.8 74.1,17.7 111.1,26.5 36.8,8.8 73.6,17.6 110.4,26.3 32.5,7.8 65,15.5 97.5,23.3 24.1,5.8 48.3,11.5 72.4,17.3 24.1,5.8 23.3,5.7 35,8.4 11.7,2.7 1,0.2 1.6,0.4 9.4,2.2 13.4,-12.2 4,-14.5 z"
     id="path262" />
  <path
     class="st1"
     d="m 865.9,2806.9 c 5.5,-21.9 10.9,-43.9 16.4,-65.8 l 39,-156.9 47.1,-189.6 c 13.6,-54.6 27.1,-109.2 40.7,-163.7 13.6,-54.5 13.8,-52.8 19.7,-79.4 5.9,-26.6 0.2,-0.7 0.3,-1.1 2.3,-9.4 -12.1,-13.4 -14.5,-4 -5.5,21.9 -10.9,43.9 -16.4,65.8 l -39,156.9 -47.1,189.6 c -13.6,54.6 -27.1,109.2 -40.7,163.7 -6.6,26.4 -13.8,52.8 -19.7,79.4 -5.9,26.6 -0.2,0.7 -0.3,1.1 -2.3,9.4 12.1,13.4 14.5,4 z m 1370.5,-435.4 c -0.8,-23.4 -1.6,-46.7 -2.4,-70.1 -1.3,-37.1 -2.5,-74.1 -3.8,-111.2 -0.3,-8.6 -0.6,-17.1 -0.9,-25.7 -0.3,-8.6 -15.3,-9.7 -15,0 0.8,23.4 1.6,46.7 2.4,70.1 1.3,37.1 2.5,74.1 3.8,111.2 0.3,8.6 0.6,17.1 0.9,25.7 0.3,8.6 15.3,9.7 15,0 z M 354.8,3435 H 437 c 29.6,0 59.2,0 88.9,0.1 36.1,0 72.3,0.1 108.4,0.2 36.1,0.1 79.2,0.1 118.8,0.2 40.1,0 80.3,0.1 120.4,0.2 37.3,0 74.5,0.1 111.8,0.2 31.5,0 63,0 94.5,0.1 31.5,0.1 45.3,0 67.9,0 10.7,0 21.5,0.3 32.2,0 10.7,-0.3 0.9,0 1.4,0 3.8,0 7.9,-3.4 7.5,-7.5 -1.9,-22.1 -3.9,-44.2 -5.8,-66.3 -1.9,-22.1 -2.1,-6.1 -5.5,-7.2 -5.3,-1.7 -10.5,-3.4 -15.8,-5.1 -5.3,-1.7 -5.1,-1.8 -7.9,-1.9 -5.3,-0.2 -10.6,0 -15.9,0 H 978.6 c -15.7,0 -31.4,0.5 -47.1,0 -13.1,-0.4 -26.3,-2 -39.4,-3 -28.7,-2.2 -57.5,-4.4 -86.2,-6.6 -31.8,-2.4 -63.5,-5 -95.2,-7.9 l -86.4,-7.8 c -14.8,-1.3 -29.9,-3.7 -44.8,-3.7 h -16.2 c -9.7,0 -9.7,15 0,15 9.7,0 14.3,-0.4 21.4,0.2 7.1,0.6 14.7,1.3 22.1,2 27.8,2.5 55.7,5 83.5,7.5 32.1,2.9 64.2,5.8 96.4,8.2 47.7,3.7 95.3,7.9 143,11 10.1,0.7 20.4,0.1 30.5,0.1 h 187.9 c 1.8,0 3.7,0.2 5.6,0 1.9,-0.2 0.6,0 0.8,0 -1.4,0.7 -2.7,-0.7 -0.3,0.3 2.4,1 2.9,0.9 4.3,1.4 l 15,4.8 -5.5,-7.2 c 1.9,22.1 3.9,44.2 5.8,66.3 l 7.5,-7.5 h -82.2 c -29.6,0 -59.2,0 -88.9,-0.1 -36.1,0 -72.3,-0.1 -108.4,-0.2 -36.1,-0.1 -79.2,-0.1 -118.8,-0.2 -40.1,0 -80.3,-0.1 -120.4,-0.2 -40.1,-0.1 -74.5,-0.1 -111.8,-0.2 -31.5,0 -63,0 -94.5,-0.1 -31.5,-0.1 -45.3,0 -67.9,0 -10.7,0 -21.5,-0.3 -32.2,0 -10.7,0.3 -0.9,0 -1.4,0 -9.7,0 -9.7,15 0,15 z"
     id="path264" />
  <path
     class="st2"
     d="m 524.8,3427.5 31.4,-105.9 190.9,19.8 152.4,11.7 153.7,1.1 115.2,-1.2 11.7,30.3 1.1,45.4 h -284 z"
     id="path266" />
</svg>
