<?xml version="1.0" encoding="UTF-8" standalone="no"?>
<!-- Created with Inkscape (http://www.inkscape.org/) -->

<svg
   version="1.1"
   id="svg1"
   width="880"
   height="880"
   viewBox="0 0 880 880"
   sodipodi:docname="public-domain-vectors-r89sy28-C9w-unsplash.svg"
   inkscape:version="1.2.2 (b0a8486541, 2022-12-01)"
   xmlns:inkscape="http://www.inkscape.org/namespaces/inkscape"
   xmlns:sodipodi="http://sodipodi.sourceforge.net/DTD/sodipodi-0.dtd"
   xmlns="http://www.w3.org/2000/svg"
   xmlns:svg="http://www.w3.org/2000/svg">
  <defs
     id="defs1">
    <clipPath
       clipPathUnits="userSpaceOnUse"
       id="clipPath3">
      <path
         d="M 0,660 H 660 V 0 H 0 Z"
         transform="translate(-325.73441,-114.8652)"
         id="path3" />
    </clipPath>
    <clipPath
       clipPathUnits="userSpaceOnUse"
       id="clipPath5">
      <path
         d="M 0,660 H 660 V 0 H 0 Z"
         transform="translate(-384.79301,-448.82131)"
         id="path5" />
    </clipPath>
    <clipPath
       clipPathUnits="userSpaceOnUse"
       id="clipPath7">
      <path
         d="M 0,660 H 660 V 0 H 0 Z"
         transform="translate(-241.99321,-554.23141)"
         id="path7" />
    </clipPath>
    <clipPath
       clipPathUnits="userSpaceOnUse"
       id="clipPath9">
      <path
         d="M 0,660 H 660 V 0 H 0 Z"
         transform="translate(-241.99321,-572.78962)"
         id="path9" />
    </clipPath>
    <clipPath
       clipPathUnits="userSpaceOnUse"
       id="clipPath11">
      <path
         d="M 0,660 H 660 V 0 H 0 Z"
         transform="translate(-413.93551,-554.23141)"
         id="path11" />
    </clipPath>
    <clipPath
       clipPathUnits="userSpaceOnUse"
       id="clipPath13">
      <path
         d="M 0,660 H 660 V 0 H 0 Z"
         transform="translate(-413.93551,-572.78962)"
         id="path13" />
    </clipPath>
    <clipPath
       clipPathUnits="userSpaceOnUse"
       id="clipPath15">
      <path
         d="M 0,660 H 660 V 0 H 0 Z"
         transform="translate(-266.6743,-448.82131)"
         id="path15" />
    </clipPath>
    <clipPath
       clipPathUnits="userSpaceOnUse"
       id="clipPath17">
      <path
         d="M 0,660 H 660 V 0 H 0 Z"
         transform="translate(-327.96481,-157.2178)"
         id="path17" />
    </clipPath>
    <clipPath
       clipPathUnits="userSpaceOnUse"
       id="clipPath19">
      <path
         d="M 0,660 H 660 V 0 H 0 Z"
         transform="translate(-327.96481,-481.72851)"
         id="path19" />
    </clipPath>
    <clipPath
       clipPathUnits="userSpaceOnUse"
       id="clipPath21">
      <path
         d="M 0,660 H 660 V 0 H 0 Z"
         transform="translate(-327.96481,-404.42531)"
         id="path21" />
    </clipPath>
    <clipPath
       clipPathUnits="userSpaceOnUse"
       id="clipPath23">
      <path
         d="M 0,660 H 660 V 0 H 0 Z"
         transform="translate(-327.96481,-471.14791)"
         id="path23" />
    </clipPath>
    <clipPath
       clipPathUnits="userSpaceOnUse"
       id="clipPath25">
      <path
         d="M 0,660 H 660 V 0 H 0 Z"
         transform="translate(-364.98931,-580.25542)"
         id="path25" />
    </clipPath>
    <clipPath
       clipPathUnits="userSpaceOnUse"
       id="clipPath27">
      <path
         d="M 0,660 H 660 V 0 H 0 Z"
         transform="translate(-327.96481,-169.083)"
         id="path27" />
    </clipPath>
    <clipPath
       clipPathUnits="userSpaceOnUse"
       id="clipPath29">
      <path
         d="M 0,660 H 660 V 0 H 0 Z"
         transform="translate(-176.7036,-291.625)"
         id="path29" />
    </clipPath>
    <clipPath
       clipPathUnits="userSpaceOnUse"
       id="clipPath31">
      <path
         d="M 0,660 H 660 V 0 H 0 Z"
         transform="translate(-168.6094,-409.81451)"
         id="path31" />
    </clipPath>
    <clipPath
       clipPathUnits="userSpaceOnUse"
       id="clipPath33">
      <path
         d="M 0,660 H 660 V 0 H 0 Z"
         transform="translate(-197.9028,-249.6211)"
         id="path33" />
    </clipPath>
    <clipPath
       clipPathUnits="userSpaceOnUse"
       id="clipPath35">
      <path
         d="M 0,660 H 660 V 0 H 0 Z"
         transform="translate(-208.62111,-264.91891)"
         id="path35" />
    </clipPath>
    <clipPath
       clipPathUnits="userSpaceOnUse"
       id="clipPath37">
      <path
         d="M 0,660 H 660 V 0 H 0 Z"
         transform="translate(-175.20951,-278.8594)"
         id="path37" />
    </clipPath>
    <clipPath
       clipPathUnits="userSpaceOnUse"
       id="clipPath39">
      <path
         d="M 0,660 H 660 V 0 H 0 Z"
         transform="translate(-156.36381,-251.50681)"
         id="path39" />
    </clipPath>
    <clipPath
       clipPathUnits="userSpaceOnUse"
       id="clipPath41">
      <path
         d="M 0,660 H 660 V 0 H 0 Z"
         transform="translate(-365.82421,-559.66702)"
         id="path41" />
    </clipPath>
    <clipPath
       clipPathUnits="userSpaceOnUse"
       id="clipPath43">
      <path
         d="M 0,660 H 660 V 0 H 0 Z"
         transform="translate(-293.7979,-555.05032)"
         id="path43" />
    </clipPath>
    <clipPath
       clipPathUnits="userSpaceOnUse"
       id="clipPath45">
      <path
         d="M 0,660 H 660 V 0 H 0 Z"
         transform="translate(-327.96481,-417.30181)"
         id="path45" />
    </clipPath>
    <clipPath
       clipPathUnits="userSpaceOnUse"
       id="clipPath47">
      <path
         d="M 0,660 H 660 V 0 H 0 Z"
         transform="translate(-327.96481,-433.91601)"
         id="path47" />
    </clipPath>
    <clipPath
       clipPathUnits="userSpaceOnUse"
       id="clipPath49">
      <path
         d="M 0,660 H 660 V 0 H 0 Z"
         transform="translate(-474.76271,-291.625)"
         id="path49" />
    </clipPath>
    <clipPath
       clipPathUnits="userSpaceOnUse"
       id="clipPath51">
      <path
         d="M 0,660 H 660 V 0 H 0 Z"
         transform="translate(-482.85741,-409.81451)"
         id="path51" />
    </clipPath>
    <clipPath
       clipPathUnits="userSpaceOnUse"
       id="clipPath53">
      <path
         d="M 0,660 H 660 V 0 H 0 Z"
         transform="translate(-453.56451,-249.6211)"
         id="path53" />
    </clipPath>
    <clipPath
       clipPathUnits="userSpaceOnUse"
       id="clipPath55">
      <path
         d="M 0,660 H 660 V 0 H 0 Z"
         transform="translate(-442.84771,-264.91891)"
         id="path55" />
    </clipPath>
    <clipPath
       clipPathUnits="userSpaceOnUse"
       id="clipPath57">
      <path
         d="M 0,660 H 660 V 0 H 0 Z"
         transform="translate(-476.25781,-278.8594)"
         id="path57" />
    </clipPath>
    <clipPath
       clipPathUnits="userSpaceOnUse"
       id="clipPath59">
      <path
         d="M 0,660 H 660 V 0 H 0 Z"
         transform="translate(-495.10351,-251.50681)"
         id="path59" />
    </clipPath>
    <clipPath
       clipPathUnits="userSpaceOnUse"
       id="clipPath61">
      <path
         d="M 0,660 H 660 V 0 H 0 Z"
         transform="translate(-327.96481,-454.55761)"
         id="path61" />
    </clipPath>
    <clipPath
       clipPathUnits="userSpaceOnUse"
       id="clipPath63">
      <path
         d="M 0,660 H 660 V 0 H 0 Z"
         transform="translate(-325.34621,-458.41501)"
         id="path63" />
    </clipPath>
    <clipPath
       clipPathUnits="userSpaceOnUse"
       id="clipPath65">
      <path
         d="M 0,660 H 660 V 0 H 0 Z"
         transform="translate(-327.96481,-180.8838)"
         id="path65" />
    </clipPath>
    <clipPath
       clipPathUnits="userSpaceOnUse"
       id="clipPath67">
      <path
         d="M 0,660 H 660 V 0 H 0 Z"
         transform="translate(-168.5229,-406.76321)"
         id="path67" />
    </clipPath>
    <clipPath
       clipPathUnits="userSpaceOnUse"
       id="clipPath69">
      <path
         d="M 0,660 H 660 V 0 H 0 Z"
         transform="translate(-474.83981,-410.08541)"
         id="path69" />
    </clipPath>
  </defs>
  <sodipodi:namedview
     id="namedview1"
     pagecolor="#ffffff"
     bordercolor="#000000"
     borderopacity="0.25"
     inkscape:showpageshadow="2"
     inkscape:pageopacity="0.0"
     inkscape:pagecheckerboard="0"
     inkscape:deskcolor="#d1d1d1"
     inkscape:zoom="0.67272727"
     inkscape:cx="298.78378"
     inkscape:cy="440"
     inkscape:window-width="1920"
     inkscape:window-height="1007"
     inkscape:window-x="0"
     inkscape:window-y="0"
     inkscape:window-maximized="1"
     inkscape:current-layer="g1"
     showgrid="false">
    <inkscape:page
       x="0"
       y="0"
       inkscape:label="1"
       id="page1"
       width="880"
       height="880"
       margin="153.15334 116.71067 20.968 105.33466"
       bleed="0" />
  </sodipodi:namedview>
  <g
     id="g1"
     inkscape:groupmode="layer"
     inkscape:label="1">
    <g
       id="group-MC0"
       transform="translate(0,66.092398)">
      <path
         id="path2"
         d="m 0,0 c 135.895,0 246.732,30.53 246.732,67.962 0,37.432 -110.837,67.962 -246.732,67.962 -135.896,0 -246.733,-30.53 -246.733,-67.962 C -246.733,30.53 -135.896,0 0,0"
         style="fill:#c6e446;fill-opacity:1;fill-rule:evenodd;stroke:none"
         transform="matrix(1.3333333,0,0,-1.3333333,434.31253,726.8464)"
         clip-path="url(#clipPath3)" />
      <path
         id="path4"
         d="M 0,0 C 27.981,8.668 70.401,-6.531 94.748,-33.949 119.096,-61.366 116.149,-90.621 88.169,-99.29 60.188,-107.958 17.767,-92.759 -6.58,-65.341 -30.928,-37.923 -27.982,-8.669 0,0"
         style="fill:#8f491c;fill-opacity:1;fill-rule:evenodd;stroke:none"
         transform="matrix(1.3333333,0,0,-1.3333333,513.05733,281.5716)"
         clip-path="url(#clipPath5)" />
      <path
         id="path6"
         d="M 0,0 C 24.798,0 45.021,20.224 45.021,45.021 45.021,69.818 24.798,90.042 0,90.042 -24.796,90.042 -45.021,69.818 -45.021,45.021 -45.021,20.224 -24.796,0 0,0"
         style="fill:#ba6b21;fill-opacity:1;fill-rule:evenodd;stroke:none"
         transform="matrix(1.3333333,0,0,-1.3333333,322.6576,141.0248)"
         clip-path="url(#clipPath7)" />
      <path
         id="path8"
         d="M 0,0 C 14.577,0 26.463,11.888 26.463,26.463 26.463,41.038 14.577,52.926 0,52.926 -14.575,52.926 -26.463,41.038 -26.463,26.463 -26.463,11.888 -14.575,0 0,0"
         style="fill:#8f491c;fill-opacity:1;fill-rule:evenodd;stroke:none"
         transform="matrix(1.3333333,0,0,-1.3333333,322.6576,116.28053)"
         clip-path="url(#clipPath9)" />
      <path
         id="path10"
         d="M 0,0 C 24.798,0 45.023,20.224 45.023,45.021 45.023,69.818 24.798,90.042 0,90.042 -24.797,90.042 -45.02,69.818 -45.02,45.021 -45.02,20.224 -24.797,0 0,0"
         style="fill:#ba6b21;fill-opacity:1;fill-rule:evenodd;stroke:none"
         transform="matrix(1.3333333,0,0,-1.3333333,551.914,141.0248)"
         clip-path="url(#clipPath11)" />
      <path
         id="path12"
         d="M 0,0 C 14.575,0 26.463,11.888 26.463,26.463 26.463,41.038 14.575,52.926 0,52.926 -14.575,52.926 -26.463,41.038 -26.463,26.463 -26.463,11.888 -14.575,0 0,0"
         style="fill:#8f491c;fill-opacity:1;fill-rule:evenodd;stroke:none"
         transform="matrix(1.3333333,0,0,-1.3333333,551.914,116.28053)"
         clip-path="url(#clipPath13)" />
      <path
         id="path14"
         d="m 0,0 c -27.981,8.668 -70.402,-6.531 -94.749,-33.949 -24.348,-27.417 -21.401,-56.672 6.58,-65.341 27.981,-8.668 70.402,6.531 94.748,33.949 C 30.927,-37.923 27.981,-8.669 0,0"
         style="fill:#8f491c;fill-opacity:1;fill-rule:evenodd;stroke:none"
         transform="matrix(1.3333333,0,0,-1.3333333,355.56573,281.5716)"
         clip-path="url(#clipPath15)" />
      <path
         id="path16"
         d="m 0,0 c 75.756,0 137.542,72.888 137.542,162.255 0,89.367 -61.786,162.256 -137.542,162.256 -75.756,0 -137.542,-72.889 -137.542,-162.256 C -137.542,72.888 -75.756,0 0,0"
         style="fill:#ba6b21;fill-opacity:1;fill-rule:evenodd;stroke:none"
         transform="matrix(1.3333333,0,0,-1.3333333,437.2864,670.37627)"
         clip-path="url(#clipPath17)" />
      <path
         id="path18"
         d="M 0,0 C 37.572,0 71.62,-17.78 96.443,-46.587 77.176,-76.613 43.498,-96.511 5.171,-96.511 c -41.177,0 -76.991,22.968 -95.33,56.79 C -66.015,-14.978 -34.491,0 0,0"
         style="fill:#a4581d;fill-opacity:1;fill-rule:evenodd;stroke:none"
         transform="matrix(1.3333333,0,0,-1.3333333,437.2864,237.69533)"
         clip-path="url(#clipPath19)" />
      <path
         id="path20"
         d="m 0,0 c 59.688,0 108.369,48.682 108.369,108.371 0,59.688 -48.681,108.37 -108.369,108.37 -59.688,0 -108.37,-48.682 -108.37,-108.37 C -108.37,48.682 -59.688,0 0,0"
         style="fill:#da8a38;fill-opacity:1;fill-rule:evenodd;stroke:none"
         transform="matrix(1.3333333,0,0,-1.3333333,437.2864,340.76627)"
         clip-path="url(#clipPath21)" />
      <path
         id="path22"
         d="m 0,0 c 47.226,0 85.745,32.241 85.745,71.771 0,39.531 -38.519,71.772 -85.745,71.772 -47.227,0 -85.745,-32.241 -85.745,-71.772 C -85.745,32.241 -47.227,0 0,0"
         style="fill:#ec9e4d;fill-opacity:1;fill-rule:evenodd;stroke:none"
         transform="matrix(1.3333333,0,0,-1.3333333,437.2864,251.8028)"
         clip-path="url(#clipPath23)" />
      <path
         id="path24"
         d="m 0,0 c 15.161,0 27.45,-15.53 27.45,-34.686 0,-19.156 -12.289,-34.686 -27.45,-34.686 -15.159,0 -27.448,15.53 -27.448,34.686 C -27.448,-15.53 -15.159,0 0,0 m -74.05,0 c 15.16,0 27.449,-15.53 27.449,-34.686 0,-19.156 -12.289,-34.686 -27.449,-34.686 -15.161,0 -27.45,15.53 -27.45,34.686 C -101.5,-15.53 -89.211,0 -74.05,0"
         style="fill:#ba6b21;fill-opacity:1;fill-rule:evenodd;stroke:none"
         transform="matrix(1.3333333,0,0,-1.3333333,486.6524,106.32613)"
         clip-path="url(#clipPath25)" />
      <path
         id="path26"
         d="m 0,0 c 42.799,0 77.706,44.921 77.706,99.997 0,55.077 -34.907,99.999 -77.706,99.999 -42.8,0 -77.706,-44.922 -77.706,-99.999 C -77.706,44.921 -42.8,0 0,0"
         style="fill:#da8a38;fill-opacity:1;fill-rule:evenodd;stroke:none"
         transform="matrix(1.3333333,0,0,-1.3333333,437.2864,654.556)"
         clip-path="url(#clipPath27)" />
      <path
         id="path28"
         d="m 0,0 c 27.876,13.556 64.616,-4.535 82.061,-40.407 17.447,-35.871 8.991,-75.943 -18.884,-89.498 -27.876,-13.557 -64.616,4.533 -82.061,40.406 C -36.331,-53.627 -27.876,-13.558 0,0"
         style="fill:#a4581d;fill-opacity:1;fill-rule:evenodd;stroke:none"
         transform="matrix(1.3333333,0,0,-1.3333333,235.6048,491.16667)"
         clip-path="url(#clipPath29)" />
      <path
         id="path30"
         d="M 0,0 C 19.434,15.546 52.026,7.1 72.796,-18.866 93.568,-44.831 94.65,-78.482 75.216,-94.026 55.782,-109.574 23.191,-101.127 2.42,-75.162 -18.351,-49.198 -19.434,-15.546 0,0"
         style="fill:#a4581d;fill-opacity:1;fill-rule:evenodd;stroke:none"
         transform="matrix(1.3333333,0,0,-1.3333333,224.81253,333.58067)"
         clip-path="url(#clipPath31)" />
      <path
         id="path32"
         d="m 0,0 c 16.665,8.104 38.629,-2.712 49.059,-24.156 10.43,-21.446 5.375,-45.402 -11.289,-53.506 -16.665,-8.106 -38.631,2.71 -49.06,24.156 C -21.72,-32.061 -16.665,-8.104 0,0"
         style="fill:#da8a38;fill-opacity:1;fill-rule:evenodd;stroke:none"
         transform="matrix(1.3333333,0,0,-1.3333333,263.8704,547.17187)"
         clip-path="url(#clipPath33)" />
      <path
         id="path34"
         d="m 0,0 c 2.949,0 5.355,4.771 5.355,10.62 0,5.849 -2.406,10.619 -5.355,10.619 -2.95,0 -5.356,-4.77 -5.356,-10.619 C -5.356,4.771 -2.95,0 0,0"
         style="fill:#733919;fill-opacity:1;fill-rule:evenodd;stroke:none"
         transform="matrix(1.3333333,0,0,-1.3333333,278.16147,526.7748)"
         clip-path="url(#clipPath35)" />
      <path
         id="path36"
         d="m 0,0 c 2.495,1.59 7.072,-1.129 10.225,-6.075 3.152,-4.945 3.686,-10.242 1.192,-11.833 -2.494,-1.59 -7.071,1.131 -10.224,6.075 C -1.96,-6.889 -2.494,-1.589 0,0"
         style="fill:#733919;fill-opacity:1;fill-rule:evenodd;stroke:none"
         transform="matrix(1.3333333,0,0,-1.3333333,233.61267,508.18747)"
         clip-path="url(#clipPath37)" />
      <path
         id="path38"
         d="m 0,0 c 1.022,2.776 6.312,3.382 11.815,1.355 5.503,-2.027 9.136,-5.92 8.114,-8.696 C 18.907,-10.116 13.617,-10.722 8.113,-8.696 2.61,-6.668 -1.022,-2.775 0,0"
         style="fill:#733919;fill-opacity:1;fill-rule:evenodd;stroke:none"
         transform="matrix(1.3333333,0,0,-1.3333333,208.48507,544.6576)"
         clip-path="url(#clipPath39)" />
      <path
         id="path40"
         d="m 0,0 c 6.63,0 12.004,-5.375 12.004,-12.004 0,-6.629 -5.374,-12.004 -12.004,-12.004 -6.63,0 -12.005,5.375 -12.005,12.004 C -12.005,-5.375 -6.63,0 0,0 m -75.718,0 c 6.628,0 12.003,-5.375 12.003,-12.004 0,-6.629 -5.375,-12.004 -12.003,-12.004 -6.632,0 -12.006,5.375 -12.006,12.004 0,6.629 5.374,12.004 12.006,12.004"
         style="fill:#2f2825;fill-opacity:1;fill-rule:evenodd;stroke:none"
         transform="matrix(1.3333333,0,0,-1.3333333,487.7656,133.77733)"
         clip-path="url(#clipPath41)" />
      <path
         id="path42"
         d="m 0,0 c 3.367,0 6.095,-2.729 6.095,-6.094 0,-3.367 -2.728,-6.096 -6.095,-6.096 -3.365,0 -6.094,2.729 -6.094,6.096 C -6.094,-2.729 -3.365,0 0,0 m 75.35,0 c 3.367,0 6.095,-2.729 6.095,-6.094 0,-3.367 -2.728,-6.096 -6.095,-6.096 -3.366,0 -6.094,2.729 -6.094,6.096 0,3.365 2.728,6.094 6.094,6.094"
         style="fill:#d7c9c4;fill-opacity:1;fill-rule:evenodd;stroke:none"
         transform="matrix(1.3333333,0,0,-1.3333333,391.73053,139.93293)"
         clip-path="url(#clipPath43)" />
      <path
         id="path44"
         d="m 0,0 c 39.633,0 71.959,27.057 71.959,60.231 0,33.176 -32.326,60.233 -71.959,60.233 -39.634,0 -71.96,-27.057 -71.96,-60.233 C -71.96,27.057 -39.634,0 0,0"
         style="fill:#f8be7d;fill-opacity:1;fill-rule:evenodd;stroke:none"
         transform="matrix(1.3333333,0,0,-1.3333333,437.2864,323.5976)"
         clip-path="url(#clipPath45)" />
      <path
         id="path46"
         d="m 0,0 c 37.207,0 67.554,22.912 67.554,51.005 0,28.092 -30.347,51.004 -67.554,51.004 -37.206,0 -67.553,-22.912 -67.553,-51.004 C -67.553,22.912 -37.206,0 0,0"
         style="fill:#fbcb95;fill-opacity:1;fill-rule:evenodd;stroke:none"
         transform="matrix(1.3333333,0,0,-1.3333333,437.2864,301.44533)"
         clip-path="url(#clipPath47)" />
      <path
         id="path48"
         d="m 0,0 c -27.875,13.556 -64.615,-4.535 -82.062,-40.407 -17.444,-35.871 -8.99,-75.943 18.885,-89.498 27.876,-13.557 64.615,4.533 82.062,40.406 C 36.33,-53.627 27.876,-13.558 0,0"
         style="fill:#a4581d;fill-opacity:1;fill-rule:evenodd;stroke:none"
         transform="matrix(1.3333333,0,0,-1.3333333,633.01693,491.16667)"
         clip-path="url(#clipPath49)" />
      <path
         id="path50"
         d="m 0,0 c -19.434,15.546 -52.026,7.1 -72.796,-18.866 -20.771,-25.965 -21.854,-59.616 -2.421,-75.16 19.434,-15.548 52.028,-7.101 72.797,18.864 C 18.351,-49.198 19.435,-15.546 0,0"
         style="fill:#a4581d;fill-opacity:1;fill-rule:evenodd;stroke:none"
         transform="matrix(1.3333333,0,0,-1.3333333,643.80987,333.58067)"
         clip-path="url(#clipPath51)" />
      <path
         id="path52"
         d="m 0,0 c -16.665,8.104 -38.631,-2.712 -49.06,-24.156 -10.43,-21.446 -5.375,-45.402 11.29,-53.506 16.666,-8.106 38.629,2.71 49.059,24.156 C 21.719,-32.061 16.665,-8.104 0,0"
         style="fill:#da8a38;fill-opacity:1;fill-rule:evenodd;stroke:none"
         transform="matrix(1.3333333,0,0,-1.3333333,604.75267,547.17187)"
         clip-path="url(#clipPath53)" />
      <path
         id="path54"
         d="m 0,0 c 2.948,0 5.354,4.771 5.354,10.62 0,5.849 -2.406,10.619 -5.354,10.619 -2.95,0 -5.357,-4.77 -5.357,-10.619 C -5.357,4.771 -2.95,0 0,0"
         style="fill:#733919;fill-opacity:1;fill-rule:evenodd;stroke:none"
         transform="matrix(1.3333333,0,0,-1.3333333,590.4636,526.7748)"
         clip-path="url(#clipPath55)" />
      <path
         id="path56"
         d="m 0,0 c -2.494,1.59 -7.072,-1.129 -10.225,-6.075 -3.153,-4.945 -3.687,-10.242 -1.193,-11.833 2.494,-1.59 7.072,1.131 10.224,6.075 C 1.96,-6.889 2.493,-1.589 0,0"
         style="fill:#733919;fill-opacity:1;fill-rule:evenodd;stroke:none"
         transform="matrix(1.3333333,0,0,-1.3333333,635.0104,508.18747)"
         clip-path="url(#clipPath57)" />
      <path
         id="path58"
         d="m 0,0 c -1.022,2.776 -6.312,3.382 -11.815,1.355 -5.503,-2.027 -9.137,-5.92 -8.115,-8.696 1.023,-2.775 6.313,-3.381 11.816,-1.355 C -2.611,-6.668 1.023,-2.775 0,0"
         style="fill:#733919;fill-opacity:1;fill-rule:evenodd;stroke:none"
         transform="matrix(1.3333333,0,0,-1.3333333,660.138,544.6576)"
         clip-path="url(#clipPath59)" />
      <path
         id="path60"
         d="M 0,0 C 15.119,0 27.45,10.321 27.45,22.976 27.45,35.63 15.119,45.952 0,45.952 -15.119,45.952 -27.45,35.63 -27.45,22.976 -27.45,10.321 -15.119,0 0,0"
         style="fill:#2f2825;fill-opacity:1;fill-rule:evenodd;stroke:none"
         transform="matrix(1.3333333,0,0,-1.3333333,437.2864,273.9232)"
         clip-path="url(#clipPath61)" />
      <path
         id="path62"
         d="M 0,0 C 0,1.445 1.173,2.617 2.619,2.617 4.064,2.617 5.235,1.445 5.235,0 v -14.82 c 0,-3.122 1.275,-5.959 3.332,-8.015 2.057,-2.056 4.893,-3.332 8.014,-3.332 3.125,0 5.959,1.276 8.017,3.332 2.055,2.056 3.33,4.893 3.33,8.015 v 3.027 c 0,1.446 1.171,2.618 2.618,2.618 1.446,0 2.618,-1.172 2.618,-2.618 v -3.027 c 0,-4.568 -1.863,-8.714 -4.866,-11.717 -3.002,-3.003 -7.148,-4.864 -11.717,-4.864 -4.568,0 -8.712,1.861 -11.716,4.864 -0.844,0.845 -1.599,1.78 -2.246,2.789 -0.649,-1.009 -1.403,-1.944 -2.247,-2.789 -3.003,-3.003 -7.149,-4.864 -11.716,-4.864 -4.568,0 -8.716,1.861 -11.718,4.864 -3.002,3.003 -4.864,7.149 -4.864,11.717 v 3.027 c 0,1.446 1.172,2.618 2.617,2.618 1.446,0 2.618,-1.172 2.618,-2.618 v -3.027 c 0,-3.122 1.276,-5.959 3.331,-8.015 2.056,-2.056 4.892,-3.332 8.016,-3.332 3.121,0 5.959,1.276 8.013,3.332 2.057,2.056 3.331,4.893 3.331,8.015 z"
         style="fill:#2f2825;fill-opacity:1;fill-rule:evenodd;stroke:none"
         transform="matrix(1.3333333,0,0,-1.3333333,433.79493,268.78)"
         clip-path="url(#clipPath63)" />
      <path
         id="path64"
         d="m 0,0 c 29.528,0 53.61,30.992 53.61,68.99 0,37.998 -24.082,68.991 -53.61,68.991 -29.528,0 -53.61,-30.993 -53.61,-68.991 C -53.61,30.992 -29.528,0 0,0"
         style="fill:#eb9e4e;fill-opacity:1;fill-rule:evenodd;stroke:none"
         transform="matrix(1.3333333,0,0,-1.3333333,437.2864,638.8216)"
         clip-path="url(#clipPath65)" />
      <path
         id="path66"
         d="M 0,0 C 12.276,9.82 32.865,4.485 45.986,-11.917 59.106,-28.321 59.791,-49.579 47.514,-59.398 35.237,-69.219 14.65,-63.883 1.528,-47.48 -11.593,-31.078 -12.276,-9.821 0,0"
         style="fill:#b0621d;fill-opacity:1;fill-rule:evenodd;stroke:none"
         transform="matrix(1.3333333,0,0,-1.3333333,224.6972,337.64907)"
         clip-path="url(#clipPath67)" />
      <path
         id="path68"
         d="m 0,0 c -13.203,10.561 -35.345,4.822 -49.456,-12.816 -14.11,-17.64 -14.846,-40.503 -1.644,-51.064 13.204,-10.562 35.345,-4.823 49.457,12.817 C 12.467,-33.422 13.202,-10.562 0,0"
         style="fill:#b0621d;fill-opacity:1;fill-rule:evenodd;stroke:none"
         transform="matrix(1.3333333,0,0,-1.3333333,633.11973,333.21947)"
         clip-path="url(#clipPath69)" />
    </g>
  </g>
</svg>
