<svg id="Layer_1" data-name="Layer 1" xmlns="http://www.w3.org/2000/svg" viewBox="0 0 500 500"><defs><style>.cls-1{fill:#242024;}.cls-2{fill:#1c94d0;}.cls-3{fill:#ffb61b;}.cls-4{fill:#220e00;}</style></defs><title>Music</title><path class="cls-1" d="M163.37,498.79a3.35,3.35,0,0,1-.76-.09,3.22,3.22,0,0,1-2.37-3.88c11.83-49.23,82.46-80.33,139.22-105.32,37.05-16.31,72.05-31.72,76.38-46.67,1-3.4.3-6.78-2.08-10.32C360,312.07,290.14,320.68,222.59,329c-69,8.51-134.23,16.53-156.79-1.93a21.65,21.65,0,0,1-8.24-15.63c-1.7-22.11,3-38.47,14.11-48.64,15.27-14,36.7-10.76,37.6-10.61a3.22,3.22,0,0,1-1,6.36c-.19,0-19.33-2.9-32.26,9-9.5,8.76-13.54,23.36-12,43.37a15.22,15.22,0,0,0,5.9,11.13c20.42,16.72,87.27,8.49,151.92.53,72.68-8.94,141.33-17.4,157.3,6.31,3.47,5.15,4.45,10.44,2.92,15.71-5.16,17.85-38.17,32.38-80,50.78C246.6,419.81,177.58,450.19,166.5,496.32A3.23,3.23,0,0,1,163.37,498.79Z"/><polygon class="cls-2" points="133.58 220.49 99.23 253.49 103.53 261.81 148.88 249.2 133.58 220.49"/><path class="cls-1" d="M325.74,69.28,128.31,211.4s-6.92,34.57,31.11,44L374.67,137.3S380.07,91,325.74,69.28Z"/><path class="cls-2" d="M318.47,61.09l-58,48.3s-17.18,57,44.54,74.07l71.38-39.72Z"/><ellipse class="cls-3" cx="386.9" cy="78.79" rx="74.37" ry="77.28" transform="translate(24.76 236.12) rotate(-34.99)"/><circle class="cls-4" cx="369.99" cy="56.26" r="4.83"/><circle class="cls-4" cx="376.43" cy="31.71" r="4.83"/><path class="cls-4" d="M429.65,65a4.83,4.83,0,1,1,3.84,5.65A4.82,4.82,0,0,1,429.65,65Z"/><circle class="cls-4" cx="402.19" cy="46.6" r="4.83"/><circle class="cls-4" cx="423.93" cy="109.39" r="4.83"/><ellipse class="cls-4" cx="405.41" cy="83.63" rx="4.83" ry="6.44"/><circle class="cls-4" cx="376.43" cy="82.02" r="4.83"/><circle class="cls-4" cx="360.33" cy="104.56" r="4.83"/><path class="cls-4" d="M352.06,74.49a4.83,4.83,0,1,1-6.5,2.11A4.83,4.83,0,0,1,352.06,74.49Z"/><path class="cls-4" d="M347.22,42.3a4.83,4.83,0,1,1-6.49,2.11A4.83,4.83,0,0,1,347.22,42.3Z"/><circle class="cls-4" cx="387.7" cy="115.83" r="6.44"/></svg>